<mxfile host="Electron" modified="2023-12-25T11:58:35.695Z" agent="Mozilla/5.0 (Windows NT 10.0; Win64; x64) AppleWebKit/537.36 (KHTML, like Gecko) draw.io/22.1.11 Chrome/114.0.5735.289 Electron/25.9.8 Safari/537.36" etag="3Z5dhbde6AJLYHFJtep7" version="22.1.11" type="device">
  <diagram name="Page-1" id="HsitdcN0r7PipA14mCh1">
    <mxGraphModel dx="1036" dy="606" grid="1" gridSize="10" guides="1" tooltips="1" connect="1" arrows="1" fold="1" page="1" pageScale="1" pageWidth="1169" pageHeight="1654" math="0" shadow="0">
      <root>
        <mxCell id="0" />
        <mxCell id="1" parent="0" />
        <mxCell id="JLwtRgdgTvwD6cfcFC8S-1" value="" style="shape=umlLifeline;perimeter=lifelinePerimeter;whiteSpace=wrap;html=1;container=1;dropTarget=0;collapsible=0;recursiveResize=0;outlineConnect=0;portConstraint=eastwest;newEdgeStyle={&quot;curved&quot;:0,&quot;rounded&quot;:0};participant=umlActor;" parent="1" vertex="1">
          <mxGeometry x="650" y="390" width="20" height="370" as="geometry" />
        </mxCell>
        <mxCell id="JLwtRgdgTvwD6cfcFC8S-2" value="" style="html=1;points=[[0,0,0,0,5],[0,1,0,0,-5],[1,0,0,0,5],[1,1,0,0,-5]];perimeter=orthogonalPerimeter;outlineConnect=0;targetShapes=umlLifeline;portConstraint=eastwest;newEdgeStyle={&quot;curved&quot;:0,&quot;rounded&quot;:0};" parent="JLwtRgdgTvwD6cfcFC8S-1" vertex="1">
          <mxGeometry x="5" y="80" width="10" height="260" as="geometry" />
        </mxCell>
        <mxCell id="JLwtRgdgTvwD6cfcFC8S-3" value="User:" style="shape=umlLifeline;perimeter=lifelinePerimeter;whiteSpace=wrap;html=1;container=1;dropTarget=0;collapsible=0;recursiveResize=0;outlineConnect=0;portConstraint=eastwest;newEdgeStyle={&quot;curved&quot;:0,&quot;rounded&quot;:0};" parent="1" vertex="1">
          <mxGeometry x="850" y="390" width="100" height="370" as="geometry" />
        </mxCell>
        <mxCell id="JLwtRgdgTvwD6cfcFC8S-4" value="" style="html=1;points=[[0,0,0,0,5],[0,1,0,0,-5],[1,0,0,0,5],[1,1,0,0,-5]];perimeter=orthogonalPerimeter;outlineConnect=0;targetShapes=umlLifeline;portConstraint=eastwest;newEdgeStyle={&quot;curved&quot;:0,&quot;rounded&quot;:0};" parent="JLwtRgdgTvwD6cfcFC8S-3" vertex="1">
          <mxGeometry x="45" y="90" width="10" height="60" as="geometry" />
        </mxCell>
        <mxCell id="JLwtRgdgTvwD6cfcFC8S-5" value="Product:" style="shape=umlLifeline;perimeter=lifelinePerimeter;whiteSpace=wrap;html=1;container=1;dropTarget=0;collapsible=0;recursiveResize=0;outlineConnect=0;portConstraint=eastwest;newEdgeStyle={&quot;curved&quot;:0,&quot;rounded&quot;:0};" parent="1" vertex="1">
          <mxGeometry x="970" y="390" width="100" height="370" as="geometry" />
        </mxCell>
        <mxCell id="JLwtRgdgTvwD6cfcFC8S-6" value="Admin" style="text;html=1;strokeColor=none;fillColor=none;align=center;verticalAlign=middle;whiteSpace=wrap;rounded=0;" parent="1" vertex="1">
          <mxGeometry x="630" y="350" width="60" height="30" as="geometry" />
        </mxCell>
        <mxCell id="JLwtRgdgTvwD6cfcFC8S-7" value="LoginScreen:" style="shape=umlLifeline;perimeter=lifelinePerimeter;whiteSpace=wrap;html=1;container=1;dropTarget=0;collapsible=0;recursiveResize=0;outlineConnect=0;portConstraint=eastwest;newEdgeStyle={&quot;curved&quot;:0,&quot;rounded&quot;:0};" parent="1" vertex="1">
          <mxGeometry x="730" y="390" width="100" height="370" as="geometry" />
        </mxCell>
        <mxCell id="JLwtRgdgTvwD6cfcFC8S-8" value="" style="html=1;points=[[0,0,0,0,5],[0,1,0,0,-5],[1,0,0,0,5],[1,1,0,0,-5]];perimeter=orthogonalPerimeter;outlineConnect=0;targetShapes=umlLifeline;portConstraint=eastwest;newEdgeStyle={&quot;curved&quot;:0,&quot;rounded&quot;:0};" parent="JLwtRgdgTvwD6cfcFC8S-7" vertex="1">
          <mxGeometry x="45" y="80" width="10" height="80" as="geometry" />
        </mxCell>
        <mxCell id="JLwtRgdgTvwD6cfcFC8S-9" value="&lt;font style=&quot;font-size: 10px;&quot;&gt;Login(email,pass)&lt;/font&gt;" style="html=1;verticalAlign=bottom;endArrow=block;curved=0;rounded=0;exitX=1;exitY=0;exitDx=0;exitDy=5;exitPerimeter=0;" parent="1" edge="1">
          <mxGeometry width="80" relative="1" as="geometry">
            <mxPoint x="665" y="490" as="sourcePoint" />
            <mxPoint x="775" y="490" as="targetPoint" />
          </mxGeometry>
        </mxCell>
        <mxCell id="JLwtRgdgTvwD6cfcFC8S-10" value="Authenticate" style="html=1;verticalAlign=bottom;endArrow=block;curved=0;rounded=0;entryX=-0.015;entryY=0.25;entryDx=0;entryDy=0;entryPerimeter=0;" parent="1" edge="1">
          <mxGeometry width="80" relative="1" as="geometry">
            <mxPoint x="785" y="500" as="sourcePoint" />
            <mxPoint x="895" y="500" as="targetPoint" />
          </mxGeometry>
        </mxCell>
        <mxCell id="JLwtRgdgTvwD6cfcFC8S-11" value="" style="html=1;verticalAlign=bottom;endArrow=open;dashed=1;endSize=8;curved=0;rounded=0;exitX=0;exitY=1;exitDx=0;exitDy=-5;exitPerimeter=0;" parent="1" edge="1">
          <mxGeometry relative="1" as="geometry">
            <mxPoint x="775" y="540" as="sourcePoint" />
            <mxPoint x="665" y="540" as="targetPoint" />
          </mxGeometry>
        </mxCell>
        <mxCell id="JLwtRgdgTvwD6cfcFC8S-12" value="" style="html=1;verticalAlign=bottom;endArrow=open;dashed=1;endSize=8;curved=0;rounded=0;exitX=0;exitY=1;exitDx=0;exitDy=-5;exitPerimeter=0;" parent="1" edge="1">
          <mxGeometry relative="1" as="geometry">
            <mxPoint x="895" y="520.0000000000002" as="sourcePoint" />
            <mxPoint x="785" y="520.0000000000002" as="targetPoint" />
          </mxGeometry>
        </mxCell>
        <mxCell id="JLwtRgdgTvwD6cfcFC8S-13" value="" style="html=1;points=[[0,0,0,0,5],[0,1,0,0,-5],[1,0,0,0,5],[1,1,0,0,-5]];perimeter=orthogonalPerimeter;outlineConnect=0;targetShapes=umlLifeline;portConstraint=eastwest;newEdgeStyle={&quot;curved&quot;:0,&quot;rounded&quot;:0};" parent="1" vertex="1">
          <mxGeometry x="1015" y="561" width="10" height="50" as="geometry" />
        </mxCell>
        <mxCell id="JLwtRgdgTvwD6cfcFC8S-16" value="" style="html=1;points=[[0,0,0,0,5],[0,1,0,0,-5],[1,0,0,0,5],[1,1,0,0,-5]];perimeter=orthogonalPerimeter;outlineConnect=0;targetShapes=umlLifeline;portConstraint=eastwest;newEdgeStyle={&quot;curved&quot;:0,&quot;rounded&quot;:0};" parent="1" vertex="1">
          <mxGeometry x="1015" y="632" width="10" height="50" as="geometry" />
        </mxCell>
        <mxCell id="JLwtRgdgTvwD6cfcFC8S-17" value="AddProduct(productDetails)" style="html=1;verticalAlign=bottom;endArrow=open;curved=0;rounded=0;exitX=1;exitY=0;exitDx=0;exitDy=5;exitPerimeter=0;endFill=0;" parent="1" target="JLwtRgdgTvwD6cfcFC8S-16" edge="1">
          <mxGeometry x="0.0019" width="80" relative="1" as="geometry">
            <mxPoint x="665" y="646.6300000000001" as="sourcePoint" />
            <mxPoint x="1015" y="646.6300000000001" as="targetPoint" />
            <mxPoint as="offset" />
          </mxGeometry>
        </mxCell>
        <mxCell id="JLwtRgdgTvwD6cfcFC8S-18" value="ShowAllProducts" style="html=1;verticalAlign=bottom;endArrow=block;curved=0;rounded=0;exitX=1;exitY=0;exitDx=0;exitDy=5;exitPerimeter=0;" parent="1" edge="1">
          <mxGeometry width="80" relative="1" as="geometry">
            <mxPoint x="665" y="571" as="sourcePoint" />
            <mxPoint x="1015" y="571" as="targetPoint" />
          </mxGeometry>
        </mxCell>
        <mxCell id="JLwtRgdgTvwD6cfcFC8S-20" value="" style="html=1;verticalAlign=bottom;endArrow=open;dashed=1;endSize=8;curved=0;rounded=0;exitX=0;exitY=1;exitDx=0;exitDy=-5;exitPerimeter=0;" parent="1" edge="1">
          <mxGeometry relative="1" as="geometry">
            <mxPoint x="1014" y="600.0000000000002" as="sourcePoint" />
            <mxPoint x="664" y="600" as="targetPoint" />
          </mxGeometry>
        </mxCell>
      </root>
    </mxGraphModel>
  </diagram>
</mxfile>
